<svg style="position: absolute; width: 0; height: 0; overflow: hidden;" version="1.1" xmlns="http://www.w3.org/2000/svg" xmlns:xlink="http://www.w3.org/1999/xlink">
<defs>
<symbol id="icon-cache" viewBox="0 0 37 64">
<title>cache</title>
<path d="M0.106 32.001l18.395-31.869 18.399 31.869-18.399 31.868zM18.452 60.454l7.343-12.717h-14.685zM11.204 45.899h14.709v-5.516h-14.709zM9.759 45.4v-26.799l-7.676 13.294h-0.121l0.060 0.104-0.060 0.105h0.121zM27.357 45.030l7.462-12.924h0.121l-0.060-0.105 0.060-0.104h-0.121l-7.462-12.925zM11.204 38.415h14.709v-5.778h-14.709zM11.466 30.666h14.709v-5.778h-14.709zM11.204 23.312h14.709v-5.516h-14.709zM11.058 16.352h14.789l-7.395-12.806z"></path>
<path d="M18.501 0.263l18.323 31.738-18.323 31.737-18.324-31.737 18.324-31.738zM10.945 16.416h15.012l-0.114-0.197-7.394-12.804-0.114 0.197-7.394 12.804zM11.138 23.376h14.84v-5.647h-14.84v5.647zM2.045 31.83h-0.197l0.099 0.171-0.099 0.171h0.197l7.78 13.474v-27.29l-0.246 0.424-7.534 13.050zM27.291 45.274l0.246-0.424 7.32-12.674h0.197l-0.099-0.171 0.099-0.171h-0.197l-7.566-13.108v26.548zM11.401 30.731h14.84v-5.91h-14.84v5.91zM11.138 38.479h14.84v-5.91h-14.84v5.91zM11.138 45.965h14.84v-5.647h-14.84v5.647zM18.452 60.586l0.114-0.197 7.337-12.717h-14.908l0.114 0.197 7.337 12.716zM18.501 0l-18.45 31.956h-0.050l0.025 0.043-0.025 0.043h0.050l18.45 31.957 18.449-31.956h0.050l-0.025-0.043 0.025-0.043h-0.050l-18.449-31.957zM11.172 16.285l7.279-12.607 7.279 12.607zM11.269 23.245v-5.384h14.577v5.384zM2.076 32.044l0.022-0.038-0.022-0.039h0.045l7.572-13.121v26.309l-7.572-13.11zM27.423 44.783v-25.567l7.354 12.739h0.045l-0.022 0.039 0.022 0.038h-0.045l-7.354 12.739zM11.532 30.599v-5.647h14.577v5.647zM11.269 38.348v-5.647h14.577v5.647zM11.269 45.833v-5.384h14.577v5.384zM18.452 60.323l-7.223-12.52h14.451l-7.223 12.52z"></path>
</symbol>
<symbol id="icon-danger" viewBox="0 0 68 64">
<title>danger</title>
<path d="M33.936 63.927c-0 0-0.001 0-0.002 0-8.94 0-16.186-7.247-16.186-16.186 0-3.989 1.443-7.641 3.836-10.463l0.014-0.016-21.472-37.188h67.535l-21.435 37.13 0.034 0.040c2.403 2.807 3.866 6.482 3.866 10.498 0 8.94-7.247 16.186-16.186 16.186-0.001 0-0.002 0-0.003 0zM22.708 39.389c-1.724 2.299-2.76 5.201-2.76 8.344 0 7.727 6.264 13.99 13.99 13.99s13.99-6.264 13.99-13.99c0-3.17-1.054-6.094-2.832-8.44l-0.042-0.053-11.16 19.321-11.119-19.26zM35.035 51.108l8.057-13.945-0.047-0.040c-2.138-1.854-4.876-3.069-7.886-3.322l-0.13-0.003zM32.464 33.822c-3.007 0.321-5.678 1.558-7.779 3.423l-0.031 0.027 7.895 13.674v-17.124zM23.527 35.334l0.067-0.056c2.413-2.018 5.466-3.347 8.814-3.649l0.13-0.005v-28.955h-27.869zM35.032 31.585h0.067c3.459 0.249 6.572 1.557 9.061 3.598l0.039 0.032 18.798-32.546h-27.963z"></path>
<path d="M67.536 0.146l-21.4 37.065 0.067 0.079c2.392 2.794 3.847 6.452 3.847 10.449 0 8.9-7.215 16.115-16.115 16.115s-16.115-7.215-16.115-16.115c0-3.971 1.436-7.607 3.818-10.416l0.047-0.056-0.051-0.089-21.389-37.034h67.29zM44.223 35.334l0.086-0.147 18.816-32.596h-28.164v29.065l0.136 0.010c3.444 0.248 6.542 1.55 9.020 3.582l0.105 0.086zM23.511 35.451l0.133-0.111c2.402-2.014 5.442-3.341 8.777-3.645l0.196-0.016v-29.082h-28.075l0.127 0.22 18.838 32.631zM34.961 51.375l0.274-0.473 7.944-13.762-0.092-0.079c-2.147-1.859-4.895-3.077-7.917-3.332l-0.209-0.017v17.663zM32.617 51.228v-17.493l-0.161 0.018c-3.025 0.321-5.711 1.565-7.824 3.441l-0.075 0.067 8.062 13.963zM33.896 58.414l-11.113-19.247-0.133 0.179c-1.734 2.312-2.777 5.23-2.777 8.391 0 7.767 6.297 14.064 14.064 14.064s14.064-6.297 14.064-14.064c0-3.189-1.061-6.13-2.85-8.489l-0.108-0.142-0.111 0.192-11.036 19.116zM67.79 0h-67.79l21.509 37.254c-2.383 2.81-3.831 6.478-3.831 10.484 0 8.981 7.28 16.261 16.261 16.261s16.261-7.28 16.261-16.261c0-4.035-1.47-7.727-3.903-10.57l21.493-37.169zM44.182 35.112c-2.473-2.026-5.599-3.339-9.021-3.589l-0.053-28.781h27.763l-18.689 32.376zM23.551 35.227l-18.755-32.484h27.675v28.801c-3.428 0.313-6.495 1.652-8.946 3.702zM35.108 50.827v-16.956c3.040 0.26 5.758 1.465 7.902 3.316l-7.902 13.64zM32.471 50.681l-7.728-13.385c2.078-1.842 4.735-3.074 7.666-3.392l0.061 16.766zM33.895 58.712l11.163-19.338c1.745 2.3 2.795 5.21 2.795 8.365 0 7.686-6.231 13.917-13.917 13.917s-13.917-6.231-13.917-13.917c0-3.128 1.032-6.016 2.775-8.34l11.108 19.309z"></path>
</symbol>
<symbol id="icon-empty" viewBox="0 0 64 64">
<title>empty</title>
<path d="M32 63.931c-17.634-0.001-31.929-14.296-31.929-31.931 0-8.817 3.574-16.799 9.352-22.578 5.761-5.678 13.675-9.184 22.409-9.184 17.635 0 31.931 14.296 31.931 31.931 0 8.733-3.506 16.648-9.188 22.412-5.743 5.774-13.698 9.349-22.488 9.349-0.030 0-0.060-0-0.090-0zM12.998 54.474c5.091 4.325 11.739 6.956 19.002 6.956s13.911-2.63 19.044-6.991l0.097-0.087h-38.286zM11.87 51.852h40.26v-40.26h-40.26zM54.213 51.308l0.122-0.139c4.41-5.116 7.096-11.828 7.096-19.166s-2.686-14.050-7.128-19.204l-0.090-0.101zM9.526 12.992c-4.325 5.091-6.956 11.739-6.956 19.002s2.63 13.911 6.991 19.044l0.087 0.097v-38.279zM32 2.568c-7.339 0-14.050 2.686-19.205 7.129l-0.101 0.090h38.614l-0.139-0.122c-5.117-4.411-11.828-7.097-19.167-7.097-0.001 0-0.002 0-0.002 0z"></path>
<path d="M32 0.139c17.597 0.005 31.861 14.271 31.861 31.869 0 13.119-7.927 24.387-19.253 29.274-3.867 1.667-8.13 2.591-12.608 2.591-17.603 0-31.874-14.27-31.874-31.874 0-13.125 7.933-24.397 19.265-29.283 3.845-1.659 8.083-2.578 12.536-2.578 0.026 0 0.051 0 0.077 0zM12.504 9.857h38.991l-0.278-0.244c-5.128-4.421-11.856-7.114-19.212-7.114s-14.084 2.693-19.25 7.146l-0.239 0.212zM11.8 51.922h40.399v-40.399h-40.399v40.399zM54.143 51.496l0.244-0.278c4.421-5.128 7.114-11.856 7.114-19.212s-2.693-14.084-7.146-19.25l-0.212-0.239v38.979zM9.718 51.336v-38.672l-0.244 0.289c-4.337 5.102-6.974 11.767-6.974 19.047s2.638 13.944 7.009 19.089l0.209 0.248zM32 61.501c7.28-0.002 13.943-2.64 19.088-7.010l0.246-0.209h-38.671l0.289 0.244c5.103 4.335 11.767 6.973 19.047 6.975zM32 0c-17.673 0-32 14.327-32 32s14.327 32 32 32 32-14.327 32-32-14.327-32-32-32zM12.879 9.718c5.104-4.4 11.8-7.080 19.121-7.080s14.017 2.68 19.159 7.112zM11.939 51.783v-40.121h40.121v40.121zM54.282 51.121v-38.242c4.4 5.104 7.080 11.8 7.080 19.121s-2.68 14.017-7.112 19.159zM9.579 50.95c-4.313-5.077-6.936-11.707-6.936-18.95s2.623-13.873 6.97-18.992l-0.035 37.942zM32 61.362c-0.010 0-0.023 0-0.035 0-7.232 0-13.852-2.626-18.956-6.976l37.941 0.034c-5.064 4.316-11.683 6.941-18.915 6.941-0.012 0-0.024 0-0.037 0z"></path>
</symbol>
<symbol id="icon-fence" viewBox="0 0 38 64">
<title>fence</title>
<path d="M0.080 32l8.038-13.492h21.896l8.038 13.492-18.983 31.864zM20.978 56.313l14.519-24.372-6.71-11.264h-7.809zM2.633 31.942l14.412 24.194v-35.458h-7.702z"></path>
<path d="M29.974 18.576l8 13.424-18.909 31.729-18.902-31.729 8-13.424h21.81zM20.91 56.559l14.666-24.617-0.041-0.069-6.709-11.262h-7.916v35.949zM17.113 56.378v-35.768h-7.807l-0.039 0.066-6.71 11.265 0.041 0.069 14.517 24.367zM30.052 18.441h-21.973l-8.079 13.559 19.066 32 19.064-32-8.079-13.559zM21.045 56.066v-35.321h7.703l6.67 11.196-14.373 24.125zM16.978 55.886l-14.266-23.944 6.673-11.196h7.593v35.14z"></path>
<path d="M10.945 13.763l8.121-13.627 8.121 13.627zM14.838 11.458h8.456l-4.228-7.097z"></path>
<path d="M19.066 0.271l8 13.424h-16l8-13.424zM14.719 11.525h8.694l-4.347-7.296-0.117 0.195-4.23 7.101zM19.066 0l-8.24 13.831h16.48l-8.24-13.831zM14.957 11.39l4.108-6.896 4.108 6.896z"></path>
</symbol>
<symbol id="icon-guild" viewBox="0 0 37 64">
<title>guild</title>
<path d="M18.476 0.135l-18.397 31.866 18.397 31.866 18.397-31.866zM18.442 5.593l7.372 12.77c-2.116-1.162-4.637-1.845-7.318-1.845-2.745 0-5.322 0.717-7.556 1.973zM18.442 58.48l-7.6-13.164c2.198 1.278 4.838 2.032 7.653 2.032 2.752 0 5.335-0.72 7.573-1.983zM18.496 44.387c-6.803 0-12.319-5.515-12.319-12.319s5.515-12.319 12.319-12.319c6.803 0 12.319 5.515 12.319 12.319s-5.515 12.319-12.319 12.319z"></path>
</symbol>
<symbol id="icon-loot" viewBox="0 0 64 64">
<title>loot</title>
<path d="M32 63.93c-17.634-0-31.93-14.296-31.93-31.93 0-8.817 3.574-16.8 9.352-22.578 5.773-5.75 13.737-9.305 22.531-9.305 17.634 0 31.93 14.296 31.93 31.93 0 8.794-3.555 16.758-9.306 22.532-5.745 5.776-13.7 9.351-22.49 9.351-0.030 0-0.061-0-0.091-0zM12.954 53.267c4.927 4.693 11.612 7.581 18.97 7.581s14.043-2.888 18.982-7.592l0.118-0.11h-38.193zM10.73 13.084c-4.279 5.079-6.879 11.694-6.879 18.916s2.6 13.838 6.915 18.961l0.087 0.096v-38.12zM53.147 50.896l0.123-0.148c4.194-5.051 6.739-11.602 6.739-18.748s-2.545-13.696-6.778-18.796l-0.084-0.1zM13.094 50.626h37.812v-7.422h-37.812zM13.094 40.543h37.812v-7.422h-37.812zM13.094 30.459h37.812v-7.422h-37.812zM13.094 20.656h37.812v-7.422h-37.812zM31.93 3.151c-7.358 0.007-14.040 2.894-18.982 7.593l-0.117 0.109h38.198l-0.129-0.12c-4.93-4.688-11.613-7.575-18.969-7.582z"></path>
<path d="M32 0.14c17.591 0.012 31.847 14.275 31.847 31.868 0 13.114-7.921 24.378-19.239 29.268-3.818 1.621-8.019 2.517-12.429 2.517-17.6 0-31.868-14.268-31.868-31.868 0-13.054 7.849-24.275 19.085-29.201 3.846-1.663 8.088-2.584 12.545-2.584 0.021 0 0.042 0 0.064 0zM12.654 10.923h38.551l-0.256-0.242c-4.939-4.707-11.641-7.603-19.019-7.603s-14.079 2.896-19.030 7.614l-0.247 0.232zM10.923 51.256v-38.512l-0.246 0.291c-4.289 5.091-6.895 11.722-6.895 18.961s2.606 13.871 6.932 19.006l0.21 0.254zM53.077 51.092l0.248-0.297c4.204-5.063 6.755-11.63 6.755-18.792s-2.551-13.729-6.794-18.841l-0.209-0.251v38.179zM13.024 20.727h37.952v-7.562h-37.952v7.562zM13.024 30.53h37.952v-7.562h-37.952v7.562zM13.024 40.613h37.952v-7.562h-37.952v7.562zM13.024 50.696h37.952v-7.562h-37.952v7.562zM31.93 60.919c7.376-0.007 14.075-2.901 19.030-7.611l0.245-0.231h-38.55l0.256 0.242c4.943 4.7 11.643 7.593 19.018 7.6zM32 0c-17.674 0-32 14.326-32 32s14.326 32 32 32 32-14.326 32-32-14.326-32-32-32zM13.007 10.783c4.984-4.696 11.624-7.562 18.923-7.562s13.939 2.867 18.923 7.562zM10.783 50.871c-4.268-5.066-6.862-11.666-6.862-18.871s2.594-13.805 6.899-18.915l-0.036 37.786zM53.217 50.696v-37.392c4.18 5.038 6.717 11.571 6.717 18.696s-2.537 13.658-6.756 18.744zM13.164 20.586v-7.282h37.672v7.282zM13.164 30.39v-7.282h37.672v7.282zM13.164 40.473v-7.282h37.672v7.282zM13.164 50.556v-7.282h37.672v7.282zM31.93 60.779c-7.295 0-13.939-2.867-18.923-7.562h37.845c-4.984 4.696-11.624 7.562-18.923 7.562z"></path>
</symbol>
<symbol id="icon-protected" viewBox="0 0 44 64">
<title>protected</title>
<path d="M11.842 46.092h-0.031c-6.724-1.223-11.755-7.033-11.755-14.019 0-6.956 4.988-12.747 11.583-13.99l0.119-0.014 10.112-17.921 10.087 17.881h0.032c6.775 1.178 11.86 7.014 11.86 14.037 0 7.053-5.128 12.908-11.859 14.039l-0.115 0.012-10.007 17.747zM21.918 44.096c-2.086 1.34-4.621 2.155-7.344 2.203l-0.125 0 7.433 13.173 7.433-13.173h-0.11c-2.686-0.076-5.169-0.885-7.272-2.235l0.021 0.011zM29.662 19.664c-2.205 0-4.277 0.573-6.075 1.577l-0.021 0.014 0.072 0.063c3.009 2.624 4.9 6.465 4.9 10.748 0 4.32-1.924 8.191-4.963 10.802l-0.091 0.078 0.082 0.047c1.754 1.003 3.855 1.595 6.093 1.597 0.191 0 0.39 0 0.594-0.015h0.037l7.069-12.534-6.964-12.346h-0.036c-0.238-0.023-0.474-0.029-0.699-0.029zM14.361 19.664c-0.322 0-0.648 0.012-0.97 0.037h-0.036l-6.954 12.328 7.060 12.518h0.036c0.294 0.020 0.585 0.031 0.862 0.031 0 0 0 0 0 0 2.21 0 4.286-0.575 6.086-1.584l0.021-0.014-0.073-0.063c-3.084-2.628-5.028-6.516-5.028-10.857 0-4.303 1.909-8.161 4.927-10.772l0.091-0.078-0.085-0.047c-1.714-0.943-3.756-1.498-5.928-1.498-0.003 0-0.007 0-0.010 0zM32.998 44.132l0.157-0.045c5.214-1.578 8.948-6.332 8.968-11.961 0-0.018 0-0.036 0-0.054 0-5.563-3.665-10.269-8.711-11.838l-0.248-0.073 6.677 11.842zM10.345 20.327c-4.951 1.725-8.441 6.353-8.441 11.796 0 5.505 3.569 10.176 8.519 11.826l0.25 0.079-6.786-12.031 6.624-11.726zM21.972 22.323c-2.914 2.302-4.767 5.835-4.767 9.802s1.853 7.499 4.74 9.782l0.067 0.052 0.041-0.032c2.914-2.302 4.767-5.835 4.767-9.802s-1.853-7.5-4.74-9.782l-0.067-0.052zM14.414 17.831h0.112c2.748 0.041 5.298 0.857 7.451 2.237l-0.021-0.011 0.036-0.023c2.057-1.322 4.553-2.133 7.233-2.202l0.129-0-7.471-13.242z"></path>
<path d="M21.868 0.271l10.047 17.814 0.063 0.011c6.739 1.177 11.796 6.984 11.796 13.971 0 7.017-5.1 12.843-11.796 13.974l-0.146 0.022-0.032 0.056-9.933 17.61-9.982-17.698-0.063-0.011c-6.687-1.223-11.689-7.004-11.689-13.954 0-6.92 4.96-12.682 11.518-13.925l0.149-0.025 0.031-0.055 10.035-17.791zM21.954 20.137l0.072-0.045c2.047-1.317 4.531-2.126 7.199-2.195l0.239-0-0.109-0.193-7.472-13.246-0.116 0.205-7.467 13.235h0.224c2.735 0.041 5.273 0.852 7.416 2.227l0.015 0.011zM29.664 44.648c0.192 0 0.392 0 0.597-0.015h0.073l0.036-0.064 7.071-12.535-0.037-0.065-6.97-12.346h-0.073c-0.241-0.013-0.478-0.020-0.704-0.020 0 0-0 0-0 0-2.217 0-4.3 0.576-6.107 1.585l-0.103 0.059 0.144 0.125c2.996 2.612 4.878 6.435 4.878 10.698 0 4.3-1.916 8.154-4.941 10.752l-0.164 0.14 0.166 0.093c1.762 1.004 3.872 1.597 6.121 1.597zM14.35 44.652c2.222 0 4.309-0.578 6.119-1.592l0.106-0.061-0.146-0.125c-3.067-2.615-5-6.483-5-10.802 0-4.287 1.903-8.129 4.911-10.727l0.165-0.142-0.169-0.092c-1.726-0.952-3.784-1.513-5.972-1.513-0 0-0.001 0-0.001 0-0.323 0-0.652 0.012-0.975 0.037h-0.070l-0.035 0.061-6.956 12.329 0.037 0.065 7.059 12.517h0.072c0.295 0.020 0.587 0.031 0.867 0.031zM39.764 32l-6.745 11.958-0.154 0.283 0.314-0.092c5.242-1.587 8.996-6.366 9.016-12.025 0-0.018 0-0.036 0-0.054 0-5.592-3.684-10.324-8.757-11.9l-0.408-0.122 0.164 0.29 6.57 11.661zM10.821 44.147l-0.168-0.297-6.683-11.85 6.683-11.847-0.33 0.112c-4.978 1.734-8.486 6.387-8.486 11.86 0 5.537 3.592 10.235 8.572 11.892l0.413 0.131zM22.013 42.043l0.082-0.065c2.929-2.314 4.792-5.867 4.792-9.854s-1.863-7.54-4.766-9.834l-0.109-0.085-0.082 0.065c-2.929 2.314-4.792 5.867-4.792 9.854s1.863 7.54 4.766 9.834l0.109 0.085zM21.88 59.613l0.116-0.205 7.427-13.171h-0.221c-2.675-0.074-5.147-0.88-7.241-2.224l-0.015-0.011-0.072 0.045c-2.075 1.333-4.597 2.144-7.305 2.193l-0.237 0 0.109 0.194 7.434 13.181zM21.858 0.005l-10.143 17.992c-6.71 1.268-11.716 7.084-11.716 14.070 0 7.015 5.049 12.851 11.712 14.072l10.156 17.861 10.050-17.816c6.844-1.152 11.993-7.033 11.993-14.117 0-7.055-5.107-12.916-11.825-14.091l-10.218-17.976zM21.954 19.98c-2.105-1.355-4.667-2.176-7.418-2.217l7.346-13.040 7.358 13.040c-2.712 0.068-5.221 0.885-7.343 2.251zM29.664 44.517c-0.005 0-0.011 0-0.017 0-2.221 0-4.305-0.587-6.104-1.614 3.132-2.607 5.066-6.496 5.066-10.837 0-4.303-1.9-8.162-4.907-10.784 1.703-0.982 3.758-1.551 5.946-1.551 0.006 0 0.012 0 0.018 0 0.233 0 0.465 0.007 0.696 0.020l6.927 12.281-7.035 12.475c-0.196 0.009-0.399 0.015-0.591 0.015zM14.362 44.517c-0.289 0-0.575-0.011-0.858-0.031l-7.024-12.454 6.919-12.264q0.478-0.037 0.965-0.037c0.008 0 0.018 0 0.027 0 2.155 0 4.181 0.553 5.944 1.524-3.115 2.606-5.035 6.482-5.035 10.807 0 4.365 1.955 8.273 5.037 10.896-1.702 0.988-3.762 1.56-5.954 1.56-0.005 0-0.009 0-0.014 0zM33.131 44.023l6.786-12.023-6.613-11.724c5.108 1.609 8.747 6.303 8.747 11.847 0 5.607-3.723 10.345-8.832 11.877zM10.534 43.915c-5.015-1.665-8.568-6.313-8.568-11.791 0-5.414 3.471-10.018 8.309-11.707l-6.458 11.583 6.721 11.915zM22.008 41.874c-2.898-2.29-4.742-5.804-4.742-9.75s1.843-7.46 4.716-9.73c2.925 2.27 4.768 5.785 4.768 9.73s-1.843 7.46-4.716 9.73zM21.874 59.343l-7.318-12.976c2.751-0.046 5.301-0.865 7.454-2.248 1.998 1.359 4.493 2.175 7.172 2.25l-7.298 12.979z"></path>
</symbol>
<symbol id="icon-route" viewBox="0 0 44 64">
<title>route</title>
<path d="M43.891 21.98c0 0.011 0 0.023 0 0.036 0 4.558-1.399 8.79-3.791 12.289l0.058-0.092h-3.092c2.7-3.309 4.337-7.58 4.337-12.233 0-10.727-8.696-19.422-19.422-19.422s-19.422 8.696-19.422 19.422c0 4.653 1.636 8.923 4.364 12.268l-3.12-0.035 0.010 0.017c-2.345-3.436-3.745-7.68-3.745-12.251 0-12.102 9.81-21.912 21.912-21.912s21.912 9.81 21.912 21.912c0 0 0 0 0 0.001z"></path>
<path d="M40.158 34.214l-0.010 0.017c0 0.001 0 0.003 0 0.004s-0 0.003-0 0.004c-1.806 2.647-4.094 4.826-6.756 6.455l3.679-6.48z"></path>
<path d="M40.143 34.239l-18.163 29.628-18.163-29.629c1.806 2.647 4.094 4.826 6.756 6.455l11.407 19.647 11.311-19.591c2.758-1.684 5.047-3.864 6.804-6.435z"></path>
<path d="M37.066 34.214l-0.008 0.011v-0.011z"></path>
<path d="M37.057 34.225l-3.767 6.523c-3.227 1.974-7.132 3.142-11.311 3.142s-8.084-1.169-11.407-3.197l-3.671-6.469c3.59 4.394 9.009 7.178 15.078 7.178s11.488-2.783 15.050-7.143z"></path>
<path d="M6.902 34.225l3.767 6.523c-2.758-1.684-5.047-3.863-6.804-6.434l-0.049-0.084-0.015-0.017h3.092z"></path>
<path d="M6.902 34.225l-0.008-0.011z"></path>
<path d="M20.736 2.074h2.627v39.813h-2.627v-39.813z"></path>
</symbol>
<symbol id="icon-safe" viewBox="0 0 74 64">
<title>safe</title>
<path d="M0.13 63.926l36.822-63.777 36.82 63.777zM57.37 44.749c-0.544 5.821-3.453 10.872-7.743 14.245l-0.215 0.166h16.429l-8.456-14.646zM8.179 59.16h16.499l-0.171-0.133c-4.36-3.424-7.277-8.514-7.789-14.295l-0.025-0.315zM37.041 27.586c-8.472 0-15.34 6.868-15.34 15.34s6.868 15.34 15.34 15.34c8.472 0 15.34-6.868 15.34-15.34-0.010-8.468-6.872-15.33-15.339-15.34zM28.16 24.553l0.214-0.101c2.539-1.217 5.52-1.928 8.666-1.928 3.113 0 6.064 0.696 8.705 1.941l0.088 0.047-8.824-15.286z"></path>
<path d="M36.951 0.298l36.692 63.553h-73.384l36.692-63.553zM27.977 24.723l0.43-0.203c2.53-1.212 5.499-1.921 8.634-1.921 3.101 0 6.041 0.693 8.672 1.933l0.303 0.145-0.235-0.408-8.768-15.192-0.13 0.223-8.908 15.419zM37.041 58.341c8.513 0 15.414-6.901 15.414-15.414s-6.901-15.414-15.414-15.414c-8.513 0-15.414 6.901-15.414 15.414 0.010 8.509 6.905 15.404 15.413 15.414zM8.050 59.234h16.844l-0.341-0.267c-4.345-3.412-7.252-8.483-7.763-14.243l-0.046-0.551-0.238 0.411-8.456 14.65zM49.187 59.234h16.78l-0.13-0.223-8.508-14.738-0.042 0.469c-0.531 5.803-3.432 10.839-7.715 14.192l-0.386 0.3zM36.951 0l-36.951 64h73.901l-36.95-64zM28.343 24.384l8.666-15.011 8.638 14.969c-2.524-1.195-5.484-1.893-8.607-1.893-3.158 0-6.149 0.713-8.821 1.988zM37.041 58.192c-8.431 0-15.265-6.835-15.265-15.265s6.835-15.265 15.265-15.265c8.431 0 15.265 6.835 15.265 15.265s-6.835 15.265-15.265 15.265zM8.307 59.085l8.328-14.425c0.509 5.883 3.439 10.994 7.776 14.392zM49.625 59.085c4.358-3.412 7.281-8.484 7.81-14.25l8.275 14.25z"></path>
</symbol>
</defs>
</svg>
