<svg id="Layer_1" data-name="Layer 1" xmlns="http://www.w3.org/2000/svg" viewBox="0 0 281.75 487.33">
  <title>cache</title>
  <g>
    <path d="M122,249.67,262.07,7l140.1,242.67L262.07,492.33ZM261.69,466.33l55.91-96.83H205.78ZM206.5,355.5h112v-42h-112Zm-11-3.8V147.64L137.05,248.87h-.92l.46.79-.46.8h.92Zm134-2.82,56.82-98.41h.92l-.46-.8.46-.79h-.92L329.5,150.46Zm-123-50.37h112v-44h-112Zm2-59h112v-44h-112Zm-2-56h112v-42h-112Zm-1.11-53H318L261.69,33Z" transform="translate(-121.19 -6)"/>
    <path d="M262.07,8,401.59,249.67h0L262.07,491.33,122.54,249.67h0L262.07,8M204.53,131H318.84l-.87-1.5-55.43-96-.87-1.5-.87,1.5-55.43,96-.87,1.5M206,184H319V141H206v43m-69.24,64.37h-1.5l.75,1.3-.75,1.3h1.5l57.37,99.37,1.87,3.23V145.77L194.13,149l-57.37,99.37M329,350.74l1.87-3.23L386.61,251h1.5l-.75-1.3.75-1.3h-1.5l-55.74-96.55L329,148.59V350.74M208,240H321V195H208v45m-2,59H319V254H206v45m0,57H319V313H206v43m55.69,111.33.87-1.5,55-95.33.87-1.5H204.91l.87,1.5,55,95.33.87,1.5M262.07,6,121.58,249.33h-.38l.19.33-.19.33h.38L262.07,493.33,402.55,250h.38l-.19-.33.19-.33h-.38L262.07,6ZM206.26,130l55.43-96,55.43,96Zm.74,53V142H318v41Zm-70,67,.17-.29-.17-.3h.34L195,149.5V349.83L137.34,250Zm193,97V152.32l56,97h.34l-.17.3.17.29H386l-56,97ZM209,239V196H320v43Zm-2,59V255H318v43Zm0,57V314H318v41Zm54.69,110.33-55-95.33H316.73l-55,95.33Z" transform="translate(-121.19 -6)"/>
  </g>
</svg>
