<svg id="Layer_1" data-name="Layer 1" xmlns="http://www.w3.org/2000/svg" viewBox="0 0 462.74 436.87">
  <title>danger</title>
  <g>
    <path d="M256,446.5a110.49,110.49,0,0,1-84.45-181.75l.23-.27L25.21,10.63h461L339.89,264.08l.23.27A110.49,110.49,0,0,1,256,446.5ZM179.36,279a95.5,95.5,0,1,0,153-.42l-.46-.6L255.72,409.87,179.82,278.4ZM263.5,359l55-95.19-.32-.27A94.7,94.7,0,0,0,264,240.84l-.54,0ZM245.95,241a94.75,94.75,0,0,0-53,23.28l-.31.27,53.89,93.34V241Zm-61,10.32.46-.38A109.72,109.72,0,0,1,246,226l.46,0V28.35H56.22Zm78.53-25.59.46,0a109.68,109.68,0,0,1,61.66,24.41l.46.37L454.38,28.35H263.5Z" transform="translate(-24.35 -10.13)"/>
    <path d="M485.36,11.13,339.63,263.53l-.35.61.46.54a110,110,0,1,1-167.81.39l.45-.54-.35-.61-146-252.8H485.36M326.22,251.32l.59-1,127.57-221,.87-1.5H263V226.22l.93.07a109.18,109.18,0,0,1,61.38,24.3l.91.74m-141.38.79.91-.76a109.22,109.22,0,0,1,60.34-24.91l.91-.08V27.85H55.36l.87,1.5,128,221.74.59,1M263,360.82l1.87-3.23,53.82-93.22.41-.72-.63-.54a95.19,95.19,0,0,0-54.39-22.77l-1.08-.09V360.82m-16-1V240.41l-1.1.12a95.25,95.25,0,0,0-53.31,23.4l-.61.54.41.71,52.75,91.37,1.87,3.23m8.72,49.09L180.63,278.81l-.76-1.32-.91,1.22a96,96,0,1,0,153.76-.43l-.91-1.21-.76,1.31L255.72,408.87M487.09,10.13H24.35l146.82,254.3A111,111,0,1,0,340.5,264L487.09,10.13ZM325.94,249.81A110.47,110.47,0,0,0,264,225.29V28.85H453.51l-127.57,221Zm-140.83.78L57.09,28.85H246V225.45a110.49,110.49,0,0,0-60.89,25.13ZM264,357.08V241.34a94.58,94.58,0,0,1,53.82,22.53L264,357.08Zm-18-1-52.75-91.37A94.61,94.61,0,0,1,246,241.52V356Zm9.72,54.82,76.2-132a95,95,0,1,1-152.16.42l76,131.56Z" transform="translate(-24.35 -10.13)"/>
  </g>
</svg>
