<svg id="Layer_1" data-name="Layer 1" xmlns="http://www.w3.org/2000/svg" viewBox="0 0 461 461">
  <title>empty</title>
  <g>
    <path d="M248.5,480.5A230,230,0,0,1,85.87,87.87,230,230,0,0,1,411.13,413.13,228.49,228.49,0,0,1,248.5,480.5ZM111.63,412.38a212,212,0,0,0,273.74,0l1-.88H110.59ZM103.5,393.5h290v-290h-290Zm305-3.92.88-1a212,212,0,0,0,0-276.11l-.88-1Zm-321.88-276a212,212,0,0,0,0,273.74l.88,1V112.59ZM248.5,38.5A212,212,0,0,0,110.44,89.62l-1,.88H387.58l-1-.88A212,212,0,0,0,248.5,38.5Z" transform="translate(-18 -20)"/>
    <path d="M248.5,21a229.56,229.56,0,0,1,89.33,441A229.56,229.56,0,0,1,159.17,39,228.06,228.06,0,0,1,248.5,21M108.07,91H388.93l-2-1.76a212.48,212.48,0,0,0-276.77,0l-2,1.76M103,394H394V103H103V394m305-3.07,1.76-2a212.48,212.48,0,0,0,0-276.77l-1.76-2V390.93M88,389.78V111.22l-1.76,2.08a212.46,212.46,0,0,0,0,274.39L88,389.78M248.5,463a212.61,212.61,0,0,0,137.19-50.24l2.08-1.76H109.22l2.08,1.76A212.61,212.61,0,0,0,248.5,463m0-443C121.2,20,18,123.2,18,250.5S121.2,481,248.5,481,479,377.8,479,250.5,375.8,20,248.5,20ZM110.77,90a211.48,211.48,0,0,1,275.46,0ZM104,393V104H393V393Zm305-4.77V112.77a211.48,211.48,0,0,1,0,275.46ZM87,387A211.46,211.46,0,0,1,87,114V387Zm161.5,75A210.64,210.64,0,0,1,112,412H385A210.64,210.64,0,0,1,248.5,462Z" transform="translate(-18 -20)"/>
  </g>
</svg>
