<svg id="Layer_1" data-name="Layer 1" xmlns="http://www.w3.org/2000/svg" viewBox="0 0 281.21 472">
  <title>fence</title>
  <g>
    <g>
      <path d="M110.38,250l59.28-99.5H331.14L390.42,250l-140,235ZM264.5,429.31,371.58,249.57,322.09,166.5H264.5ZM129.21,249.57,235.5,428V166.5H178.7Z" transform="translate(-109.79 -14)"/>
      <path d="M330.85,151l59,99L250.4,484,111,250l59-99H330.85M264,431.12l1.86-3.12,106-177.92.3-.51-.3-.51-49.19-82.57-.29-.49H264V431.12m-28-1.33V166H178.42l-.29.49-49.19,82.57-.3.51.3.51L234.14,426.67l1.86,3.12M331.42,150H169.37L109.79,250,250.4,486,391,250,331.42,150ZM265,427.49V167h56.81L371,249.57,265,427.49Zm-30-1.33L129.79,249.57,179,167h56V426.16Z" transform="translate(-109.79 -14)"/>
    </g>
    <g>
      <path d="M190.51,115.5,250.4,15,310.29,115.5Zm28.71-17h62.36L250.4,46.16Z" transform="translate(-109.79 -14)"/>
      <path d="M250.4,16l59,99h-118l59-99M218.34,99h64.12l-.9-1.51-30.3-50.86-.86-1.44-.86,1.44-30.3,50.86-.9,1.51M250.4,14,189.63,116H311.17L250.4,14ZM220.1,98l30.3-50.86L280.7,98Z" transform="translate(-109.79 -14)"/>
    </g>
  </g>
</svg>
