<svg id="Layer_1" data-name="Layer 1" xmlns="http://www.w3.org/2000/svg" viewBox="0 0 457 457">
  <title>loot</title>
  <g>
    <path d="M248.5,478.5A228,228,0,0,1,87.28,89.28,228,228,0,0,1,409.72,411.72,226.51,226.51,0,0,1,248.5,478.5Zm-136-76.14a196.55,196.55,0,0,0,270.92,0l.92-.86H111.62ZM96.62,115.43a210.28,210.28,0,0,0,0,270.15l.88,1V114.38Zm302.88,270,.88-1.06a210.28,210.28,0,0,0,0-267.74l-.88-1.06Zm-286-1.93h270v-53h-270Zm0-72h270v-53h-270Zm0-72h270v-53h-270Zm0-70h270v-53h-270ZM248,44.5A197,197,0,0,0,112.54,98.64l-.92.86H384.38l-.92-.86A197,197,0,0,0,248,44.5Z" transform="translate(-20 -22)"/>
    <path d="M248.5,23a227.56,227.56,0,0,1,88.55,437.12A227.56,227.56,0,0,1,159.95,40.88,226.08,226.08,0,0,1,248.5,23M110.36,100H385.64l-1.83-1.73a197,197,0,0,0-271.61,0L110.36,100M98,388V113l-1.76,2.08a210.78,210.78,0,0,0,0,270.79L98,388m301-1.17,1.77-2.12a210.78,210.78,0,0,0,0-268.38L399,114.19V386.81M113,170H384V116H113v54m0,70H384V186H113v54m0,72H384V258H113v54m0,72H384V330H113v54m135,73a197.51,197.51,0,0,0,135.8-54.27l1.83-1.73H110.36l1.83,1.73A197.51,197.51,0,0,0,248,457m.5-435C122.3,22,20,124.3,20,250.5S122.3,479,248.5,479,477,376.7,477,250.5,374.7,22,248.5,22ZM112.88,99c35.59-33.53,83-54,135.12-54s99.53,20.47,135.12,54ZM97,385.25a209.78,209.78,0,0,1,0-269.5v269.5ZM400,384V117A209.78,209.78,0,0,1,400,384ZM114,169V117H383v52Zm0,70V187H383v52Zm0,72V259H383v52Zm0,72V331H383v52Zm134,73c-52.09,0-99.53-20.47-135.12-54H383.12c-35.59,33.53-83,54-135.12,54Z" transform="translate(-20 -22)"/>
  </g>
</svg>
