<svg id="Layer_1" data-name="Layer 1" xmlns="http://www.w3.org/2000/svg" viewBox="0 0 318 462.97">
  <title>route</title>
  <g>
    <g>
      <path d="M409,165.5a157.74,157.74,0,0,1-27.07,88.62L382,254H359.63a140.5,140.5,0,1,0-218.26,0H119l.07.12A158.51,158.51,0,1,1,409,165.5Z" transform="translate(-91.5 -6.5)"/>
      <path d="M382,254l-.07.12a.21.21,0,0,1,0,.06,159.12,159.12,0,0,1-49.57,47.09l27.25-47.19.06-.08Z" transform="translate(-91.5 -6.5)"/>
      <path d="M381.89,254.18,250.5,468.51,119.11,254.18a159.12,159.12,0,0,0,49.57,47.09L250.5,443l81.82-141.72A159.12,159.12,0,0,0,381.89,254.18Z" transform="translate(-91.5 -6.5)"/>
      <path d="M359.63,254l-.06.08,0-.08Z" transform="translate(-91.5 -6.5)"/>
      <path d="M359.57,254.08l-27.25,47.19a158.63,158.63,0,0,1-163.64,0l-27.25-47.19a140.52,140.52,0,0,0,218.14,0Z" transform="translate(-91.5 -6.5)"/>
      <path d="M141.43,254.08l27.25,47.19a159.12,159.12,0,0,1-49.57-47.09l0-.06L119,254h22.37Z" transform="translate(-91.5 -6.5)"/>
      <path d="M141.43,254.08l-.06-.08h0Z" transform="translate(-91.5 -6.5)"/>
    </g>
    <g>
      <line x1="49.89" y1="247.5" x2="49.87" y2="247.5" fill="none" stroke="#000" stroke-miterlimit="10"/>
      <line x1="268.13" y1="247.5" x2="268.11" y2="247.5" fill="none" stroke="#000" stroke-miterlimit="10"/>
      <polyline points="27.61 247.68 159 462.01 290.39 247.68" fill="none" stroke="#000" stroke-miterlimit="10"/>
      <path d="M332.32,301.27a159.12,159.12,0,0,0,49.57-47.09.21.21,0,0,0,0-.06,158.5,158.5,0,1,0-262.86,0l0,.06a159.12,159.12,0,0,0,49.57,47.09" transform="translate(-91.5 -6.5)" fill="none" stroke="#000" stroke-miterlimit="10"/>
      <path d="M141.43,254.08l-.06-.08a140.5,140.5,0,1,1,218.26,0l-.06.08" transform="translate(-91.5 -6.5)" fill="none" stroke="#000" stroke-miterlimit="10"/>
      <polyline points="49.89 247.5 49.93 247.58 77.18 294.77 159 436.49 240.82 294.77 268.07 247.58 268.11 247.5" fill="none" stroke="#000" stroke-miterlimit="10"/>
    </g>
  </g>
  <rect x="150" y="15" width="19" height="288" stroke="#000" stroke-miterlimit="10"/>
</svg>
