<svg id="Layer_1" data-name="Layer 1" xmlns="http://www.w3.org/2000/svg" viewBox="0 0 496.21 429.73">
  <title>safe</title>
  <g>
    <path d="M2.66,433.5,249.9,5.27,497.13,433.5ZM387,304.74a137.39,137.39,0,0,1-52.29,95.87l-1.15.89H443.87l-56.78-98.34ZM56.71,401.5H167.49l-1.15-.89A137.32,137.32,0,0,1,114,304.1l-.13-1.59Zm193.79-212a103,103,0,1,0,103,103A103.12,103.12,0,0,0,250.5,189.5Zm-59.63-20.37,1.44-.68a137.24,137.24,0,0,1,115.8-.27l1.43.67L250.29,66.21Z" transform="translate(-1.79 -4.27)"/>
    <path d="M249.9,6.27,496.27,433H3.53L249.9,6.27m-60.26,164,2.89-1.36a136.75,136.75,0,0,1,115.37-.27l2.87,1.33-1.58-2.74-58-100.51-.87-1.5-.87,1.5L191.23,167.49l-1.59,2.76M250.5,396A103.5,103.5,0,1,0,147,292.5,103.62,103.62,0,0,0,250.5,396M55.84,402H168.94l-2.29-1.79a136.82,136.82,0,0,1-52.16-96.16l-.27-3.18-1.6,2.76L56.71,400.5l-.87,1.5m276.22,0H444.73l-.87-1.5-55.55-96.22-1.58-2.74-.28,3.15a136.3,136.3,0,0,1-52.1,95.52L332.06,402M249.9,4.27,1.79,434H498L249.9,4.27ZM192.1,168,250.29,67.21l58,100.51A137.75,137.75,0,0,0,192.1,168Zm58.4,227A102.5,102.5,0,1,1,353,292.5,102.5,102.5,0,0,1,250.5,395ZM57.57,401l55.92-96.86A137.3,137.3,0,0,0,166,401ZM335,401a137.3,137.3,0,0,0,52.48-96.22L443,401Z" transform="translate(-1.79 -4.27)"/>
  </g>
</svg>
